# xmcd
#
# Track frame offsets:
#	182
#	15550
#	29117
#	41272
#	59067
#	78255
#	97675
#	112550
#	125395
#	140337
#	151820
#	176262
#
# Disc length: 2607 seconds
# Revision: 2
# Processed by: cddbd v1.5.2PL0 Copyright (c) Steve Scherf et al.
# Submitted via: dBpowerAMP V12.0
#
DISCID=840a2d0c
DTITLE=Various Artist - The Best of New Country Line Dance
DYEAR=1997
DGENRE=Country
TTITLE0=Memphis Roots - One Step Forward
TTITLE1=Memphis Roots - There Goes My Heart
TTITLE2=Blueberry Hill - Wild One
TTITLE3=Memphis Roots - Elvira
TTITLE4=Memphis Roots - All You Ever Do Is Bring Me Down
TTITLE5=Memphis Roots - The Boys and Me
TTITLE6=Blueberry Hill - Achy Breaky Heart
TTITLE7=Memphis Roots - Bring It on Down to My House
TTITLE8=Blueberry Hill - Cotton Eye Joe
TTITLE9=Blueberry Hill - My Baby Loves Me
TTITLE10=Memphis Roots - Anyway the Wind Blows
TTITLE11=Memphis Roots - Gone Country
EXTD=
EXTT0=
EXTT1=
EXTT2=
EXTT3=
EXTT4=
EXTT5=
EXTT6=
EXTT7=
EXTT8=
EXTT9=
EXTT10=
EXTT11=
PLAYORDER=
